<svg xmlns="http://www.w3.org/2000/svg" width="1200" height="1200" viewBox="0 0 1200 1200" role="img" aria-labelledby="title desc">
<title id="title">Ethos Aegis Mission Patch</title>
<desc id="desc">Original Ethos Aegis brand asset. Abstract shield, aperture, mesh, and containment geometry. No real military insignia, seal, flag, eagle, star, or weapon is used.</desc>
<defs>
  <linearGradient id="steel" x1="0%" y1="0%" x2="100%" y2="100%">
    <stop offset="0%" stop-color="#9FC3D7" stop-opacity="0.95"/>
    <stop offset="48%" stop-color="#5E89A8" stop-opacity="0.85"/>
    <stop offset="100%" stop-color="#222832" stop-opacity="0.9"/>
  </linearGradient>
  <radialGradient id="blackGlow" cx="50%" cy="45%" r="62%">
    <stop offset="0%" stop-color="#222832" stop-opacity="0.85"/>
    <stop offset="65%" stop-color="#0A0B0D" stop-opacity="1"/>
    <stop offset="100%" stop-color="#050607" stop-opacity="1"/>
  </radialGradient>
  <filter id="softGlow" x="-30%" y="-30%" width="160%" height="160%">
    <feGaussianBlur stdDeviation="5" result="blur"/>
    <feMerge>
      <feMergeNode in="blur"/>
      <feMergeNode in="SourceGraphic"/>
    </feMerge>
  </filter>
  <pattern id="microgrid" width="32" height="32" patternUnits="userSpaceOnUse">
    <path d="M32 0H0V32" fill="none" stroke="#687482" stroke-opacity="0.08" stroke-width="1"/>
  </pattern>
</defs>
<rect width="1200" height="1200" fill="#050607"/><polygon points="600,70 1040,325 1040,875 600,1130 160,875 160,325" fill="#0A0B0D" stroke="#5E89A8" stroke-width="10" stroke-linejoin="round"/><polygon points="600,140 970,354 970,846 600,1060 230,846 230,354" fill="none" stroke="#222832" stroke-width="5" stroke-linejoin="round"/>
<g filter="url(#softGlow)">
  <circle cx="600" cy="548" r="184.1" fill="none" stroke="#5E89A8" stroke-width="4.7" stroke-opacity="0.88"/>
  <circle cx="600" cy="548" r="120.1" fill="none" stroke="#687482" stroke-width="2.0" stroke-opacity="0.45"/>
  <line x1="679.9" y1="581.1" x2="749.7" y2="610.0" stroke="#687482" stroke-opacity="0.28" stroke-width="1.7"/><line x1="633.1" y1="627.9" x2="662.0" y2="697.7" stroke="#687482" stroke-opacity="0.28" stroke-width="1.7"/><line x1="566.9" y1="627.9" x2="538.0" y2="697.7" stroke="#687482" stroke-opacity="0.28" stroke-width="1.7"/><line x1="520.1" y1="581.1" x2="450.3" y2="610.0" stroke="#687482" stroke-opacity="0.28" stroke-width="1.7"/><line x1="520.1" y1="514.9" x2="450.3" y2="486.0" stroke="#687482" stroke-opacity="0.28" stroke-width="1.7"/><line x1="566.9" y1="468.1" x2="538.0" y2="398.3" stroke="#687482" stroke-opacity="0.28" stroke-width="1.7"/><line x1="633.1" y1="468.1" x2="662.0" y2="398.3" stroke="#687482" stroke-opacity="0.28" stroke-width="1.7"/><line x1="679.9" y1="514.9" x2="749.7" y2="486.0" stroke="#687482" stroke-opacity="0.28" stroke-width="1.7"/>
  <polygon points="486.9,401.4 713.1,401.4 695.2,591.7 600.0,711.8 504.8,591.7" fill="#0A0B0D" fill-opacity="0.62" stroke="#5E89A8" stroke-width="3.9" stroke-linejoin="round"/>
  <path d="M 542.3 473.1 L 657.7 473.1 L 632.8 565.2 L 600.0 608.8 L 567.2 565.2 Z" fill="none" stroke="#9FC3D7" stroke-width="3.1" stroke-linejoin="round"/>
  <path d="M 570.4 532.4 H 629.6 M 600.0 495.0 V 602.6" stroke="#5E89A8" stroke-width="3.9" stroke-linecap="round" opacity="0.86"/>
  <circle cx="600" cy="538.6" r="32.8" fill="none" stroke="#5E89A8" stroke-width="2.0" stroke-opacity="0.65"/>
  <circle cx="769.4" cy="548.0" r="4.3" fill="#5E89A8" fill-opacity="0.78"/><circle cx="719.8" cy="667.8" r="4.3" fill="#5E89A8" fill-opacity="0.78"/><circle cx="600.0" cy="717.4" r="4.3" fill="#5E89A8" fill-opacity="0.78"/><circle cx="480.2" cy="667.8" r="4.3" fill="#5E89A8" fill-opacity="0.78"/><circle cx="430.6" cy="548.0" r="4.3" fill="#5E89A8" fill-opacity="0.78"/><circle cx="480.2" cy="428.2" r="4.3" fill="#5E89A8" fill-opacity="0.78"/><circle cx="600.0" cy="378.6" r="4.3" fill="#5E89A8" fill-opacity="0.78"/><circle cx="719.8" cy="428.2" r="4.3" fill="#5E89A8" fill-opacity="0.78"/>
</g>

<text x="600" y="900" text-anchor="middle" fill="#F2F5F7" font-family="Arial, Helvetica, sans-serif" font-size="66" font-weight="900" letter-spacing="10">ETHOS AEGIS</text>
<text x="600" y="953" text-anchor="middle" fill="#5E89A8" font-family="Arial, Helvetica, sans-serif" font-size="24" font-weight="800" letter-spacing="7">CONTAIN · CLEANSE · CERTIFY</text>
<path d="M390 1006H810" stroke="#687482" stroke-width="3" opacity="0.5"/>
</svg>
