<svg xmlns="http://www.w3.org/2000/svg" width="1800" height="560" viewBox="0 0 1800 560" role="img" aria-labelledby="title desc">
<title id="title">Ethos Aegis Documentation Header Banner</title>
<desc id="desc">Original Ethos Aegis brand asset. Abstract shield, aperture, mesh, and containment geometry. No real military insignia, seal, flag, eagle, star, or weapon is used.</desc>
<defs>
  <linearGradient id="steel" x1="0%" y1="0%" x2="100%" y2="100%">
    <stop offset="0%" stop-color="#9FC3D7" stop-opacity="0.95"/>
    <stop offset="48%" stop-color="#5E89A8" stop-opacity="0.85"/>
    <stop offset="100%" stop-color="#222832" stop-opacity="0.9"/>
  </linearGradient>
  <radialGradient id="blackGlow" cx="50%" cy="45%" r="62%">
    <stop offset="0%" stop-color="#222832" stop-opacity="0.85"/>
    <stop offset="65%" stop-color="#0A0B0D" stop-opacity="1"/>
    <stop offset="100%" stop-color="#050607" stop-opacity="1"/>
  </radialGradient>
  <filter id="softGlow" x="-30%" y="-30%" width="160%" height="160%">
    <feGaussianBlur stdDeviation="5" result="blur"/>
    <feMerge>
      <feMergeNode in="blur"/>
      <feMergeNode in="SourceGraphic"/>
    </feMerge>
  </filter>
  <pattern id="microgrid" width="32" height="32" patternUnits="userSpaceOnUse">
    <path d="M32 0H0V32" fill="none" stroke="#687482" stroke-opacity="0.08" stroke-width="1"/>
  </pattern>
</defs>

<rect width="1800" height="560" fill="#050607"/>
<rect width="1800" height="560" fill="url(#microgrid)"/>
<path d="M0 420 C360 330 620 510 980 390 S1480 280 1800 370 V560 H0 Z" fill="#222832" opacity="0.23"/>
<path d="M1180 0H1800V560H1000L1220 0Z" fill="#0A0B0D" opacity="0.66"/>

<g filter="url(#softGlow)">
  <circle cx="260" cy="276" r="136.9" fill="none" stroke="#5E89A8" stroke-width="3.5" stroke-opacity="0.88"/>
  <circle cx="260" cy="276" r="89.3" fill="none" stroke="#687482" stroke-width="1.4" stroke-opacity="0.45"/>
  <line x1="319.4" y1="300.6" x2="371.3" y2="322.1" stroke="#687482" stroke-opacity="0.28" stroke-width="1.3"/><line x1="284.6" y1="335.4" x2="306.1" y2="387.3" stroke="#687482" stroke-opacity="0.28" stroke-width="1.3"/><line x1="235.4" y1="335.4" x2="213.9" y2="387.3" stroke="#687482" stroke-opacity="0.28" stroke-width="1.3"/><line x1="200.6" y1="300.6" x2="148.7" y2="322.1" stroke="#687482" stroke-opacity="0.28" stroke-width="1.3"/><line x1="200.6" y1="251.4" x2="148.7" y2="229.9" stroke="#687482" stroke-opacity="0.28" stroke-width="1.3"/><line x1="235.4" y1="216.6" x2="213.9" y2="164.7" stroke="#687482" stroke-opacity="0.28" stroke-width="1.3"/><line x1="284.6" y1="216.6" x2="306.1" y2="164.7" stroke="#687482" stroke-opacity="0.28" stroke-width="1.3"/><line x1="319.4" y1="251.4" x2="371.3" y2="229.9" stroke="#687482" stroke-opacity="0.28" stroke-width="1.3"/>
  <polygon points="175.9,167.0 344.1,167.0 330.8,308.5 260.0,397.8 189.2,308.5" fill="#0A0B0D" fill-opacity="0.62" stroke="#5E89A8" stroke-width="2.9" stroke-linejoin="round"/>
  <path d="M 217.1 220.3 L 302.9 220.3 L 284.4 288.8 L 260.0 321.2 L 235.6 288.8 Z" fill="none" stroke="#9FC3D7" stroke-width="2.3" stroke-linejoin="round"/>
  <path d="M 238.0 264.4 H 282.0 M 260.0 236.6 V 316.6" stroke="#5E89A8" stroke-width="2.9" stroke-linecap="round" opacity="0.86"/>
  <circle cx="260" cy="269.0" r="24.4" fill="none" stroke="#5E89A8" stroke-width="1.4" stroke-opacity="0.65"/>
  <circle cx="385.9" cy="276.0" r="3.2" fill="#5E89A8" fill-opacity="0.78"/><circle cx="349.0" cy="365.0" r="3.2" fill="#5E89A8" fill-opacity="0.78"/><circle cx="260.0" cy="401.9" r="3.2" fill="#5E89A8" fill-opacity="0.78"/><circle cx="171.0" cy="365.0" r="3.2" fill="#5E89A8" fill-opacity="0.78"/><circle cx="134.1" cy="276.0" r="3.2" fill="#5E89A8" fill-opacity="0.78"/><circle cx="171.0" cy="187.0" r="3.2" fill="#5E89A8" fill-opacity="0.78"/><circle cx="260.0" cy="150.1" r="3.2" fill="#5E89A8" fill-opacity="0.78"/><circle cx="349.0" cy="187.0" r="3.2" fill="#5E89A8" fill-opacity="0.78"/>
</g>

<text x="520" y="220" fill="#F2F5F7" font-family="Arial, Helvetica, sans-serif" font-size="90" font-weight="900" letter-spacing="13">ETHOS AEGIS</text>
<text x="524" y="284" fill="#5E89A8" font-family="Arial, Helvetica, sans-serif" font-size="28" font-weight="800" letter-spacing="6">SOVEREIGN AI INTEGRITY DEFENSE</text>
<text x="526" y="352" fill="#687482" font-family="Arial, Helvetica, sans-serif" font-size="25" font-weight="600" letter-spacing="2">A hardened architecture for containment, moral judgment, resilience, and machine-trust restoration.</text>
<rect x="526" y="390" width="388" height="48" rx="8" fill="#222832" opacity="0.8"/>
<text x="720" y="422" text-anchor="middle" fill="#F2F5F7" font-family="Arial, Helvetica, sans-serif" font-size="18" font-weight="800" letter-spacing="3">FIELD MANUAL READY</text>
</svg>
