<svg xmlns="http://www.w3.org/2000/svg" width="1600" height="480" viewBox="0 0 1600 480" role="img" aria-label="Ethos Aegis visual system hero"><defs><linearGradient id="b" x1="0" y1="0" x2="1" y2="1"><stop stop-color="#080810"/><stop offset=".55" stop-color="#170B22"/><stop offset="1" stop-color="#090E18"/></linearGradient><radialGradient id="h"><stop stop-color="#FF4A6E" stop-opacity=".3"/><stop offset="1" stop-color="#8D42FF" stop-opacity="0"/></radialGradient><pattern id="g" width="48" height="48" patternUnits="userSpaceOnUse"><path d="M48 0H0V48" fill="none" stroke="#B68CFF" stroke-opacity=".07"/></pattern><filter id="z"><feGaussianBlur stdDeviation="14" result="x"/><feMerge><feMergeNode in="x"/><feMergeNode in="SourceGraphic"/></feMerge></filter></defs><rect width="1600" height="480" fill="url(#b)"/><rect width="1600" height="480" fill="url(#g)"/><circle cx="1280" cy="220" r="220" fill="url(#h)"/><path d="M0 394C420 320 860 460 1600 344V480H0Z" fill="#120C20"/><g transform="translate(1120 70)" filter="url(#z)"><path d="M150 0l120 44v115c0 90-61 139-120 168C91 298 30 249 30 159V44Z" fill="#0D1117" stroke="#FF4A6E" stroke-width="6"/><path d="M78 163l49 49 99-121" fill="none" stroke="#8D42FF" stroke-width="12" stroke-linecap="round" stroke-linejoin="round"/><circle cx="150" cy="150" r="78" fill="none" stroke="#FF4A6E" stroke-opacity=".28" stroke-dasharray="10 12"/></g><text x="112" y="72" font-family="monospace" font-size="27" letter-spacing="4" fill="#FF4A6E">AI INPUT SECURITY + THREAT ADJUDICATION</text><text x="112" y="220" font-family="Arial" font-size="100" font-weight="800" fill="#fff" filter="url(#z)">Ethos Aegis</text><text x="112" y="288" font-family="Arial" font-size="36" fill="#F0DEFF">Detect threats. Explain evidence. Gate execution.</text><g transform="translate(112 366)"><rect width="610" height="48" rx="20" fill="#fff" fill-opacity=".07" stroke="#FF4A6E" stroke-opacity=".7"/><text x="28" y="31" font-family="monospace" font-size="21" fill="#fff">Hugging Face  •  PyPI  •  Docker  •  Product Hunt</text></g><text x="112" y="456" font-family="monospace" font-size="16" fill="#A895C0">GOODSHYT  ·  DETECT • EVIDENCE • GATE • VERIFY</text></svg>
